<svg width="21" height="20" viewBox="0 0 21 20" fill="none" xmlns="http://www.w3.org/2000/svg">
<g clip-path="url(#clip0_6403_1328)">
<path d="M19.4769 4.46187C19.3954 3.91742 19.1216 3.42016 18.7051 3.06024C18.2885 2.70032 17.7568 2.50156 17.2063 2.5H3.0675C2.51699 2.50156 1.98526 2.70032 1.56869 3.06024C1.15213 3.42016 0.878314 3.91742 0.796875 4.46187L10.1369 10.5056L19.4769 4.46187Z" fill="#1B352A"/>
<path d="M10.4761 11.775C10.375 11.8404 10.2571 11.8751 10.1367 11.8751C10.0163 11.8751 9.89846 11.8404 9.79734 11.775L0.761719 5.92873V15.1944C0.76238 15.8056 1.00551 16.3917 1.43775 16.8239C1.87 17.2562 2.45606 17.4993 3.06734 17.5H17.2061C17.8174 17.4993 18.4034 17.2562 18.8357 16.8239C19.2679 16.3917 19.5111 15.8056 19.5117 15.1944V5.9281L10.4761 11.775Z" fill="#1B352A"/>
</g>
<defs>
<clipPath id="clip0_6403_1328">
<rect width="20" height="20" fill="white" transform="translate(0.136719)"/>
</clipPath>
</defs>
</svg>
