<svg width="15" height="18" viewBox="0 0 15 18" fill="none" xmlns="http://www.w3.org/2000/svg">
<path d="M7.33138 8.79167C9.51751 8.79167 11.2897 7.01946 11.2897 4.83333C11.2897 2.64721 9.51751 0.875 7.33138 0.875C5.14525 0.875 3.37305 2.64721 3.37305 4.83333C3.37305 7.01946 5.14525 8.79167 7.33138 8.79167Z" fill="#1B352A"/>
<path d="M14.3899 13.4333L14.2816 13.1667C13.9175 12.252 13.2915 11.4652 12.4821 10.9048C11.6727 10.3444 10.7159 10.0355 9.7316 10.0167H4.93993C3.95565 10.0355 2.99882 10.3444 2.18941 10.9048C1.37999 11.4652 0.754004 12.252 0.389933 13.1667L0.273266 13.425C0.0915343 13.8421 0.0154692 14.2976 0.0518086 14.7511C0.088148 15.2046 0.23577 15.6422 0.4816 16.025C0.681775 16.3519 0.962151 16.6222 1.29613 16.8104C1.63011 16.9985 2.00661 17.0982 2.38993 17.1H12.2649C12.6494 17.098 13.027 16.9984 13.3623 16.8103C13.6975 16.6223 13.9795 16.352 14.1816 16.025C14.4253 15.6429 14.5718 15.2069 14.6081 14.7551C14.6444 14.3033 14.5695 13.8495 14.3899 13.4333Z" fill="#1B352A"/>
</svg>
