<svg width="20" height="20" viewBox="0 0 18 17" fill="none" xmlns="http://www.w3.org/2000/svg">
<path d="M8.01581 0.401968C8.28095 -0.0502748 8.93474 -0.0502744 9.19987 0.401969L11.5734 4.45048C11.6702 4.61551 11.8314 4.73267 12.0183 4.77369L16.6021 5.78C17.1141 5.89242 17.3162 6.5142 16.968 6.90611L13.8511 10.4145C13.724 10.5576 13.6624 10.7471 13.6812 10.9375L14.1406 15.608C14.1919 16.1297 13.663 16.514 13.1827 16.3039L8.88279 14.4237C8.7075 14.3471 8.50818 14.3471 8.3329 14.4237L4.03301 16.3039C3.55269 16.514 3.02377 16.1297 3.07509 15.608L3.53451 10.9375C3.55324 10.7471 3.49164 10.5576 3.36458 10.4145L0.247688 6.90611C-0.100489 6.5142 0.101541 5.89242 0.613583 5.78L5.1974 4.77369C5.38426 4.73267 5.54552 4.61551 5.64228 4.45048L8.01581 0.401968Z" fill="#E4B245"/>
</svg>
