<svg xmlns="http://www.w3.org/2000/svg" width="38" height="38" viewBox="0 0 38 38" fill="none">
<circle cx="19" cy="19" r="19" fill="#2E483E"/>
<path d="M20 25H12C11.4 25 11 24.6 11 24C11 23.4 11.4 23 12 23H20C20.6 23 21 23.4 21 24C21 24.6 20.6 25 20 25Z" fill="white"/>
<path d="M26 20H12C11.4 20 11 19.6 11 19C11 18.4 11.4 18 12 18H26C26.6 18 27 18.4 27 19C27 19.6 26.6 20 26 20Z" fill="white"/>
<path d="M26 15H18C17.4 15 17 14.6 17 14C17 13.4 17.4 13 18 13H26C26.6 13 27 13.4 27 14C27 14.6 26.6 15 26 15Z" fill="white"/>
</svg>