<svg width="19" height="19" viewBox="0 0 19 19" fill="none" xmlns="http://www.w3.org/2000/svg">
<path d="M4.85946 2.22598C4.85946 3.45536 3.8649 4.45196 2.63806 4.45196C1.41122 4.45196 0.416672 3.45536 0.416672 2.22598C0.416672 0.996606 1.41122 0 2.63806 0C3.8649 0 4.85946 0.996606 4.85946 2.22598Z" fill="white"/>
<path d="M0.720452 6.08816H4.5177V18.4167H0.720452V6.08816Z" fill="white"/>
<path d="M10.6313 6.08816H6.83403V18.4167H10.6313C10.6313 18.4167 10.6313 14.5355 10.6313 12.1088C10.6313 10.6522 11.0955 9.18931 12.9476 9.18931C15.0408 9.18931 15.0282 11.0954 15.0184 12.5721C15.0056 14.5024 15.0361 16.4722 15.0361 18.4167H18.8333V11.91C18.8012 7.75523 17.7907 5.84082 14.4665 5.84082C12.4924 5.84082 11.2686 6.80109 10.6313 7.66987V6.08816Z" fill="white"/>
</svg>
