<svg width="32" height="32" viewBox="0 0 32 32" fill="none" xmlns="http://www.w3.org/2000/svg">
<g clip-path="url(#clip0_6628_1574)">
<path d="M29.3327 10.0466V22.6666C29.3327 23.6869 28.9429 24.6686 28.243 25.411C27.543 26.1533 26.5859 26.6001 25.5673 26.66L25.3327 26.6666H6.66602C5.64573 26.6667 4.664 26.2769 3.92167 25.5769C3.17934 24.877 2.73254 23.9198 2.67268 22.9013L2.66602 22.6666V10.0466L15.2593 18.4426L15.414 18.5306C15.5963 18.6197 15.7965 18.666 15.9993 18.666C16.2022 18.666 16.4024 18.6197 16.5847 18.5306L16.7393 18.4426L29.3327 10.0466Z" fill="#375B2B"/>
<path d="M25.3331 5.33337C26.7731 5.33337 28.0358 6.09337 28.7398 7.23604L15.9998 15.7294L3.25977 7.23604C3.59407 6.69306 4.05338 6.23791 4.59938 5.90855C5.14537 5.57919 5.76221 5.38518 6.39843 5.34271L6.66643 5.33337H25.3331Z" fill="#375B2B"/>
</g>
<defs>
<clipPath id="clip0_6628_1574">
<rect width="32" height="32" fill="white"/>
</clipPath>
</defs>
</svg>
