<svg width="20" height="20" viewBox="0 0 20 20" fill="none" xmlns="http://www.w3.org/2000/svg">
<path d="M9.22996 17.7247C9.17691 17.7247 9.12443 17.7137 9.07583 17.6924C9.02722 17.6712 8.98354 17.6401 8.94754 17.6011L1.33265 9.36399C1.28189 9.30907 1.24824 9.24055 1.23581 9.16681C1.22339 9.09306 1.23273 9.0173 1.2627 8.94878C1.29267 8.88026 1.34196 8.82197 1.40455 8.78104C1.46713 8.7401 1.54029 8.7183 1.61508 8.71829H5.28046C5.33549 8.7183 5.38988 8.73011 5.43997 8.75293C5.49005 8.77575 5.53465 8.80904 5.57077 8.85056L8.11569 11.7784C8.39073 11.1905 8.92315 10.2116 9.85746 9.01872C11.2387 7.25526 13.8078 4.66176 18.2034 2.32052C18.2883 2.27528 18.3872 2.26354 18.4804 2.28762C18.5736 2.31169 18.6543 2.36984 18.7068 2.45057C18.7592 2.5313 18.7794 2.62875 18.7635 2.72368C18.7475 2.8186 18.6966 2.9041 18.6207 2.96329C18.6039 2.97641 16.9092 4.31103 14.9587 6.7556C13.1636 9.00522 10.7774 12.6837 9.60319 17.4325C9.58256 17.516 9.53459 17.5901 9.46692 17.6431C9.39925 17.696 9.31579 17.7248 9.22984 17.7248L9.22996 17.7247Z" fill="#1E1E1E"/>
</svg>
