<svg width="19" height="16" viewBox="0 0 19 16" fill="none" xmlns="http://www.w3.org/2000/svg">
<path d="M6.11404 15.9998C3.98625 15.9998 2.0028 15.3623 0.333344 14.2624C1.75076 14.3569 4.25219 14.1306 5.80808 12.6018C3.46752 12.4912 2.41197 10.6421 2.27429 9.85185C2.47316 9.93087 3.42162 10.0257 3.95705 9.80443C1.26463 9.10903 0.851594 6.67512 0.94338 5.93231C1.44821 6.29581 2.30488 6.42225 2.64144 6.39064C0.132597 4.5415 1.03517 1.75989 1.4788 1.15932C3.27924 3.72875 5.97753 5.17184 9.31567 5.25211C9.25273 4.96776 9.21949 4.67172 9.21949 4.36765C9.21949 2.18549 10.9317 0.416504 13.0439 0.416504C14.1475 0.416504 15.1419 0.89942 15.84 1.67187C16.5774 1.49386 17.6873 1.07715 18.2299 0.716791C17.9564 1.72829 17.105 2.57208 16.5899 2.88482C16.5857 2.87413 16.5942 2.89546 16.5899 2.88482C17.0423 2.81433 18.2664 2.572 18.75 2.23403C18.5109 2.80228 17.6082 3.74709 16.8674 4.27604C17.0052 10.5376 12.3545 15.9998 6.11404 15.9998Z" fill="white"/>
</svg>
