<svg width="65" height="113" viewBox="0 0 65 113" fill="none" xmlns="http://www.w3.org/2000/svg">
<path opacity="0.36" d="M24.0354 0.466979C43.5295 0.504552 61.9197 13.4119 64.6744 33.4906C66.6695 48.0271 58.1772 62.9311 44.9587 68.1256C40.4045 84.8227 25.5233 97.2361 10.2503 105.609L17.0207 106.547C20.9507 107.082 20.1875 113.22 16.2554 112.658C11.9959 112.066 7.7594 111.504 3.4953 110.82C3.0438 110.754 2.61296 110.587 2.2345 110.332C1.85604 110.076 1.53962 109.739 1.3085 109.345C1.07738 108.952 0.937449 108.511 0.89903 108.055C0.860611 107.6 0.924679 107.142 1.0865 106.714C2.62669 101.711 4.05711 96.5183 6.25686 91.7531C6.4247 91.3578 6.72859 91.0357 7.1133 90.8456C7.49801 90.6554 7.93804 90.6097 8.35344 90.7167C8.76884 90.8238 9.13204 91.0765 9.37709 91.4289C9.62215 91.7814 9.7328 92.2102 9.68892 92.6375C9.39508 95.7554 8.90915 98.8523 8.23392 101.91C21.7992 94.6296 35.1742 84.473 40.2216 69.5125C37.9971 69.9533 35.7276 70.1238 33.4625 70.0202C17.7963 69.2846 -0.314888 50.7777 9.90875 34.8491C14.889 27.0823 25.5297 26.3863 32.9406 30.8294C40.9776 35.6506 45.4837 44.9419 46.2373 54.0738C46.5076 57.3041 46.3911 60.5553 45.8903 63.7582C56.0572 58.6954 62.6161 46.7706 61.5807 35.1099C59.8248 15.7181 42.246 3.24405 23.7136 2.78106C22.2016 2.77908 22.5523 0.490022 24.0354 0.466979ZM39.5123 44.2372C35.9158 36.6436 27.3371 29.4485 18.4954 32.89C10.0411 36.182 9.96669 46.8048 13.7049 53.7365C15.6211 57.11 18.2979 59.9883 21.5221 62.1421C24.7462 64.2959 28.4286 65.6656 32.2756 66.1421C35.32 66.5205 38.4092 66.302 41.3708 65.4987C42.942 58.4557 42.6285 50.845 39.5064 44.2418L39.5123 44.2372Z" fill="#375B2B"/>
</svg>
