<svg width="65" height="113" viewBox="0 0 65 113" fill="none" xmlns="http://www.w3.org/2000/svg">
<path opacity="0.06" d="M24.0315 0.466979C43.5256 0.504552 61.9158 13.4119 64.6705 33.4906C66.6656 48.0271 58.1733 62.9311 44.9548 68.1256C40.4006 84.8227 25.5194 97.2361 10.2464 105.609L17.0168 106.547C20.9468 107.082 20.1835 113.22 16.2515 112.658C11.992 112.066 7.7555 111.504 3.4914 110.82C3.03989 110.754 2.60906 110.587 2.2306 110.332C1.85214 110.076 1.53571 109.739 1.30459 109.345C1.07347 108.952 0.933543 108.511 0.895124 108.055C0.856705 107.6 0.920773 107.142 1.08259 106.714C2.62278 101.711 4.05321 96.5183 6.25295 91.7531C6.4208 91.3578 6.72468 91.0357 7.10939 90.8456C7.4941 90.6554 7.93413 90.6097 8.34953 90.7167C8.76493 90.8238 9.12813 91.0765 9.37319 91.4289C9.61824 91.7814 9.7289 92.2102 9.68502 92.6375C9.39117 95.7554 8.90524 98.8523 8.23002 101.91C21.7953 94.6296 35.1703 84.473 40.2177 69.5125C37.9932 69.9533 35.7237 70.1238 33.4586 70.0202C17.7924 69.2846 -0.318794 50.7777 9.90484 34.8491C14.885 27.0823 25.5258 26.3863 32.9367 30.8294C40.9737 35.6506 45.4798 44.9419 46.2333 54.0738C46.5037 57.3041 46.3872 60.5553 45.8864 63.7582C56.0533 58.6954 62.6122 46.7706 61.5768 35.1099C59.8209 15.7181 42.2421 3.24405 23.7097 2.78106C22.1977 2.77908 22.5484 0.490022 24.0315 0.466979ZM39.5084 44.2372C35.9119 36.6436 27.3332 29.4485 18.4915 32.89C10.0372 36.182 9.96279 46.8048 13.701 53.7365C15.6172 57.11 18.294 59.9883 21.5182 62.1421C24.7423 64.2959 28.4247 65.6656 32.2716 66.1421C35.3161 66.5205 38.4053 66.302 41.3669 65.4987C42.9381 58.4557 42.6246 50.845 39.5025 44.2418L39.5084 44.2372Z" fill="#1B352A"/>
</svg>
